<svg xmlns="http://www.w3.org/2000/svg" xmlns:xlink="http://www.w3.org/1999/xlink" width="23" height="26" viewBox="0 0 23 26">
    <defs>
        <path id="a" d="M0 .86h16.222V14.5H0z"/>
    </defs>
    <g fill="none" fill-rule="evenodd">
        <g transform="translate(0 11.056)">
            <mask id="b" fill="#fff">
                <use xlink:href="#a"/>
            </mask>
            <path fill="#FFF" d="M9.125 2.155c-.051-.071-.094-.148-.137-.224-.01-.018-.014-.038-.024-.056A2.346 2.346 0 0 1 8.688.86h-.656a7.97 7.97 0 0 0-3.888 1.018c-.037.022-.077.035-.113.056A8.02 8.02 0 0 0 0 8.89v5.61h16.222L9.207 2.3l-.082-.146z" mask="url(#b)"/>
        </g>
        <path fill="#FFF" d="M17.952 12.928a7.975 7.975 0 0 0-3.88-1.013h-.655c-.013.369-.12.709-.283 1.014-.01.02-.014.038-.023.056a2.357 2.357 0 0 1-.64.738 2.507 2.507 0 0 1-.484.292c-.04.015-.08.026-.12.042a2.137 2.137 0 0 1-.402.11 2.28 2.28 0 0 1-.413.043 2.35 2.35 0 0 1-1.556-.59 2.398 2.398 0 0 1-.371-.408l.083.146-2.894 1.74 3.962 10.457h11.828v-5.609a8.02 8.02 0 0 0-4.042-6.963c-.036-.021-.075-.035-.11-.055zM11.153 0a5.578 5.578 0 0 0-5.576 5.578 5.576 5.576 0 1 0 11.153 0A5.578 5.578 0 0 0 11.153 0z"/>
    </g>
</svg>
