<svg
    xmlns="http://www.w3.org/2000/svg"
    viewBox="0 0 36 36"
    id="vector">
    <path
        id="path"
        d="M 0.25 18.13 C 0.26 19.38 0.398 20.596 0.652 21.77 L 35.371 21.752 C 35.641 20.502 35.782 19.204 35.774 17.872 C 35.702 8.061 27.69 0.167 17.882 0.238 C 8.072 0.311 0.178 8.322 0.25 18.131 Z"
        fill="#002f6b"
        fill-rule="evenodd"/>
    <path
        id="path_1"
        d="M 0.652 21.77 C 2.392 29.82 9.58 35.824 18.142 35.762 C 26.617 35.7 33.66 29.708 35.372 21.753 L 0.651 21.77 Z"
        fill="#0080b5"
        fill-rule="evenodd"/>
    <path
        id="path_2"
        d="M 9.704 25.742 L 18.189 25.742 L 18.189 22.717 L 9.704 22.717 Z M 16.62 15.818 L 16.62 21.808 L 18.188 21.808 L 18.188 15.818 Z M 11.044 15.818 L 11.044 21.808 L 14.182 21.808 L 14.182 15.818 Z"
        fill="#ffffff"
        fill-rule="evenodd"/>
    <path
        id="path_3"
        d="M 22.194 15.818 L 22.194 21.808 L 25.332 21.808 L 25.332 15.818 Z M 18.188 13.136 L 26.673 13.136 L 18.188 7.342 Z M 18.188 15.818 L 18.188 21.808 L 19.758 21.808 L 19.758 15.818 Z M 18.189 25.742 L 26.674 25.742 L 26.674 22.717 L 18.189 22.717 Z"
        fill="#00c9c9"
        fill-rule="evenodd"/>
    <path
        id="path_4"
        d="M 18.188 7.343 L 9.703 13.137 L 9.703 14.909 L 26.673 14.909 L 26.673 13.137 L 18.188 13.137 Z"
        fill="#ffffff"
        fill-rule="evenodd"/>
</svg>
