<svg xmlns="http://www.w3.org/2000/svg" width="40" height="40" viewBox="0 0 40 40">
    <defs>
        <linearGradient id="a" x1="-4.41%" x2="106.692%" y1="50.592%" y2="50.592%">
            <stop offset="0%" stop-color="#243871"/>
            <stop offset="100%" stop-color="#0080B5"/>
        </linearGradient>
    </defs>
    <g fill="none" fill-rule="evenodd">
        <path fill="#00C9C9" d="M16.02 11.805H6.83v3.493h11.258z"/>
        <path fill="#00C9C9" fill-rule="nonzero" d="M23.17 23.902l-3.736-6.312H6.83v10.43h18.78l-2.438-4.118zm-10.233 2.371H8.702v-3.502h4.235v3.502z"/>
        <path fill="url(#a)" d="M32.39 28.02H6.83v-4.118H.565a19.512 19.512 0 0 0 38.049 0H32.35l.04 4.118z"/>
        <path fill="#FFF" d="M32.39 15.298v-3.493H16.02l2.068 3.493zM19.434 17.59l3.737 6.312L25.6 28.02h6.79V17.59zM8.702 22.77v3.503h4.235v-3.502z"/>
        <path fill="#002F6B" fill-rule="nonzero" d="M19.512.283C8.755.374.101 9.155.166 19.913c.014 1.344.164 2.684.449 4h6.214V17.56H32.39v6.302h6.264c.308-1.4.458-2.83.448-4.263C38.995 8.87 30.243.24 19.512.283zm-1.375 15.015H6.829v-3.503H32.39v3.503H18.137z"/>
    </g>
</svg>
