<?xml version="1.0"?>
<svg width="512" height="512" xmlns="http://www.w3.org/2000/svg">

 <g>
  <title>background</title>
  <rect fill="none" id="canvas_background" height="402" width="582" y="-1" x="-1"/>
 </g>
 <g>
  <title>Layer 1</title>
  <circle id="svg_3" r="256" fill="#007856" cy="256" cx="256"/>
  <polygon id="svg_6" points="144.0005341,144 144.0005341,263.4533386 185.2517395,263.4533386 185.2517395,225.0202637     171.374939,225.0202637 171.374939,215.0202637 356.6235962,215.0202637 356.6235962,225.0202637 342.7515869,225.0202637     342.7515869,263.4533386 384,263.4533386 384,144   " opacity="0.3"/>
  <path id="svg_7" opacity="0.3" d="m313.376526,384l5.924805,0c7.427734,0 13.448547,-5.928009 13.448547,-13.238922l0,-145.772278l-19.373352,0l0,159.0112z"/>
  <rect id="svg_8" y="224.9888" x="278.791473" width="24.585066" opacity="0.3" height="159.0112"/>
  <path id="svg_9" opacity="0.3" d="m195.250137,370.761078c0,7.310913 6.021332,13.238922 13.448532,13.238922l60.092804,0l0,-159.0112l-73.541336,0l0,145.772278zm21.749863,-63.88855l25,0l0,47.579193l-25,0l0,-47.579193z"/>
  <polygon id="svg_11" points="136.0005341,136 136.0005341,255.4533386 177.2517395,255.4533386 177.2517395,217.0202637     163.374939,217.0202637 163.374939,207.0202637 348.6235962,207.0202637 348.6235962,217.0202637 334.7515869,217.0202637     334.7515869,255.4533386 376,255.4533386 376,136   " fill="#FFFFFF"/>
  <path id="svg_12" fill="#FFFFFF" d="m305.376526,376l5.924805,0c7.427734,0 13.448547,-5.928009 13.448547,-13.238922l0,-145.772278l-19.373352,0l0,159.0112z"/>
  <rect id="svg_13" y="216.9888" x="270.791473" width="24.585066" height="159.0112" fill="#FFFFFF"/>
  <path id="svg_14" fill="#FFFFFF" d="m187.250137,362.761078c0,7.310913 6.021332,13.238922 13.448532,13.238922l60.092804,0l0,-159.0112l-73.541336,0l0,145.772278zm21.749863,-63.88855l25,0l0,47.579193l-25,0l0,-47.579193z"/>
 </g>
</svg>