<?xml version="1.0" encoding="iso-8859-1"?>
<!-- Generator: Adobe Illustrator 19.0.0, SVG Export Plug-In . SVG Version: 6.00 Build 0)  -->
<svg version="1.1" id="Layer_1" xmlns="http://www.w3.org/2000/svg" xmlns:xlink="http://www.w3.org/1999/xlink" x="0px" y="0px"
	 viewBox="0 0 512 512" style="enable-background:new 0 0 512 512;" xml:space="preserve">
<g>
	<polygon style="fill:#CFF09E;" points="498.495,210.456 459.674,171.636 459.674,174.763 459.674,249.276 	"/>
	<polygon style="fill:#CFF09E;" points="404.775,116.736 301.544,13.505 198.315,116.736 	"/>
	<polygon style="fill:#CFF09E;" points="52.326,262.725 13.505,301.544 52.326,340.365 	"/>
	<polygon style="fill:#CFF09E;" points="107.226,395.265 169.424,457.463 210.456,498.495 313.685,395.265 	"/>
	<rect x="52.326" y="171.246" style="fill:#CFF09E;" width="407.344" height="50.361"/>
	<circle style="fill:#CFF09E;" cx="298.344" cy="314.023" r="37.137"/>
</g>
<g>
	<path style="fill:#507C5C;" d="M512,210.456c0-3.582-1.423-7.017-3.956-9.55l-37.103-37.102c-2.417-3.656-6.559-6.069-11.269-6.069
		H65.831v-27.494h132.485h206.46h54.899c7.458,0,13.505-6.048,13.505-13.505s-6.048-13.505-13.505-13.505h-49.305L311.095,3.956
		C308.562,1.423,305.127,0,301.544,0c-3.583,0-7.016,1.423-9.55,3.956l-99.274,99.275H52.326c-7.458,0-13.505,6.048-13.505,13.505
		v140.395L3.956,291.995C1.423,294.527,0,297.963,0,301.544s1.423,7.016,3.956,9.55l34.865,34.865v49.305
		c0,7.458,6.048,13.505,13.505,13.505h49.305l99.275,99.275c2.534,2.532,5.968,3.956,9.55,3.956s7.016-1.423,9.55-3.956
		l99.275-99.275h140.393c7.458,0,13.505-6.048,13.505-13.505V254.87l34.865-34.864C510.578,217.473,512,214.037,512,210.456z
		 M301.544,32.606l70.627,70.625H230.919L301.544,32.606z M446.169,184.746v23.346H65.831v-23.346H446.169z M32.606,301.544
		l6.216-6.216v12.432L32.606,301.544z M210.456,479.396L139.83,408.77h141.251L210.456,479.396z M446.169,381.76H313.686h-206.46
		H65.832v-41.393v-77.64v-27.622H446.17v14.172V381.76H446.169z M473.179,216.672v-12.432l6.216,6.216L473.179,216.672z"/>
	<path style="fill:#507C5C;" d="M370.321,263.379c-7.458,0-13.505,6.048-13.505,13.505s6.048,13.505,13.505,13.505
		c13.03,0,23.631,10.602,23.631,23.631c0,13.031-10.602,23.633-23.631,23.633c-9.521,0-18.071-5.667-21.781-14.437
		c-0.089-0.211-0.197-0.406-0.294-0.609c0.479-2.793,0.743-5.659,0.743-8.587c0-27.925-22.718-50.642-50.643-50.642
		c-27.925,0-50.642,22.717-50.642,50.642s22.717,50.643,50.642,50.643c14.052,0,26.782-5.757,35.966-15.031
		c9.331,9.443,22.186,15.031,36.01,15.031c27.925,0,50.642-22.718,50.642-50.643C420.963,286.096,398.246,263.379,370.321,263.379z
		 M298.345,337.653c-13.03,0-23.631-10.602-23.631-23.633c0-13.03,10.602-23.631,23.631-23.631
		c13.031,0,23.633,10.602,23.633,23.631C321.978,327.052,311.377,337.653,298.345,337.653z"/>
	<path style="fill:#507C5C;" d="M208.604,348.028H104.542c-7.458,0-13.505-6.048-13.505-13.505v-41.006
		c0-7.458,6.048-13.505,13.505-13.505h104.062c7.458,0,13.505,6.048,13.505,13.505s-6.048,13.505-13.505,13.505h-90.556v13.995
		h90.556c7.458,0,13.505,6.048,13.505,13.505S216.062,348.028,208.604,348.028z"/>
</g>
<g>
</g>
<g>
</g>
<g>
</g>
<g>
</g>
<g>
</g>
<g>
</g>
<g>
</g>
<g>
</g>
<g>
</g>
<g>
</g>
<g>
</g>
<g>
</g>
<g>
</g>
<g>
</g>
<g>
</g>
</svg>
