<svg xmlns="http://www.w3.org/2000/svg" width="40" height="40" viewBox="0 0 40 40">
    <defs>
        <linearGradient id="a" x1="-4.446%" x2="106.549%" y1="49.728%" y2="49.728%">
            <stop offset="0%" stop-color="#243871"/>
            <stop offset="100%" stop-color="#0080B5"/>
        </linearGradient>
    </defs>
    <g fill="none" fill-rule="evenodd">
        <path fill="#002F6B" d="M19.625.313C8.75.374.062 9.25.125 20.063c0 1.375.188 2.75.438 4H39c.313-1.375.375-2.813.375-4.313C39.375 8.937 30.5.25 19.625.312z"/>
        <path fill="url(#a)" d="M33.25 28.563H7.375V24h-6.25C3.063 32.875 11 39.563 20.438 39.5c9.375-.063 17.187-6.688 19.062-15.5h-6.25v4.563z" transform="translate(-.5)"/>
        <path fill="#00C9C9" d="M22 24.125l-5.875-10-1.563-2.688-1.437-2.312h-3.25l-.625 2.313H6.875v17.25h17.813z"/>
        <path fill="#FFF" d="M18.688 11.438l-.625-2.313h-4.938l1.438 2.313 1.562 2.687 5.875 10 2.688 4.563h8.062v-17.25z"/>
    </g>
</svg>
