<?xml version="1.0"?>
<svg width="64" height="64" xmlns="http://www.w3.org/2000/svg">

 <g>
  <title>background</title>
  <rect fill="none" id="canvas_background" height="402" width="582" y="-1" x="-1"/>
 </g>
 <g>
  <title>Layer 1</title>
  <circle stroke="null" fill="#007856" id="svg_2" r="31.028833" cy="31.878604" cx="31.757208" class="st0"/>
  <rect fill="#474e5e" id="svg_4" y="21.5" x="18.5" width="27.7" height="20.6" class="st1"/>
  <rect fill="#f3eee4" id="svg_5" y="46.5" x="9.2" width="45.7" height="4.4" class="st2"/>
  <rect fill="#f3eee4" id="svg_6" y="42.1" x="11.4" width="41.3" height="4.4" class="st2"/>
  <rect fill="#ffffff" id="svg_7" y="24.4" x="15.8" width="4.4" height="14.7" class="st3"/>
  <rect fill="#e8dcca" id="svg_8" y="21.5" x="14.3" width="7.4" height="2.9" class="st4"/>
  <rect fill="#e8dcca" id="svg_9" y="39.2" x="42.3" width="7.4" height="2.9" class="st4"/>
  <rect fill="#e8dcca" id="svg_10" y="39.2" x="14.3" width="7.4" height="2.9" class="st4"/>
  <rect fill="#e8dcca" id="svg_11" y="21.5" x="42.3" width="7.4" height="2.9" class="st4"/>
  <rect fill="#231f20" opacity="0.1" id="svg_12" y="21.5" x="14.3" width="7.4" height="1.3" class="st5"/>
  <rect fill="#231f20" opacity="0.1" id="svg_13" y="21.5" x="42.3" width="7.4" height="1.3" class="st5"/>
  <polygon fill="#f3eee4" id="svg_14" points="10.6,17.1 32,5.3 53.4,17.1 53.4,21.5 10.6,21.5   " class="st2"/>
  <polygon fill="#e8dcca" id="svg_15" points="13.8,19.6 13.8,19.2 32.6,8.8 51.5,19.2 51.5,19.6   " class="st4"/>
  <circle fill="#231f20" opacity="0.1" id="svg_16" r="2.3" cy="14.2" cx="32.6" class="st5"/>
  <polygon fill="#231f20" opacity="0.1" id="svg_17" points="33.3,9.5 51.5,19.5 51.5,19.2 32.6,8.8 13.8,19.2 13.8,19.6 14.9,19.6   " class="st5"/>
  <path fill="#ffffff" id="svg_18" d="m32,11.3c-1.299999,0 -2.299999,1 -2.299999,2.3c0,0.599999 0.299999,1.2 0.699999,1.599999l3.300001,-3.3c-0.5,-0.4 -1.100002,-0.599999 -1.700001,-0.599999z" class="st3"/>
  <path fill="#f3eee4" id="svg_19" d="m30.4,15.2c0.4,0.400001 1,0.7 1.6,0.7c1.299999,0 2.299999,-1 2.299999,-2.299999c0,-0.6 -0.299999,-1.200001 -0.700001,-1.6l-3.199999,3.2z" class="st2"/>
  <rect fill="#231f20" opacity="0.1" id="svg_20" y="21.5" x="14.3" width="7.4" height="1.3" class="st5"/>
  <rect fill="#231f20" opacity="0.1" id="svg_21" y="21.5" x="42.3" width="7.4" height="1.3" class="st5"/>
  <rect fill="#231f20" opacity="0.1" id="svg_22" y="40.8" x="14.3" width="7.4" height="1.3" class="st5"/>
  <rect fill="#231f20" opacity="0.1" id="svg_23" y="40.8" x="42.3" width="7.4" height="1.3" class="st5"/>
  <rect fill="#231f20" opacity="0.1" id="svg_24" y="49.7" x="9.2" width="45.7" height="1.3" class="st5"/>
  <rect fill="#231f20" opacity="0.1" id="svg_25" y="45.3" x="11.4" width="41.3" height="1.3" class="st5"/>
  <path fill="#ffffff" id="svg_27" d="m37.200001,42.099998l0,-9.399998c0,-2.800001 -2.299999,-5.200001 -5.200001,-5.200001c-2.799999,0 -5.200001,2.299999 -5.200001,5.200001l0,9.399998l10.400002,0z" class="st3"/>
  <path fill="#506268" id="svg_28" d="m32.299999,28.200001c1,0.099998 1.900002,0.5 2.600002,1.099998l-2.600002,2.6l0,-3.699999z" class="st6"/>
  <path fill="#506268" id="svg_29" d="m31.700001,31.9l-2.6,-2.6c0.699999,-0.599998 1.6,-1 2.6,-1.099998l0,3.699999z" class="st6"/>
  <path fill="#506268" id="svg_30" d="m35.400002,29.700001c0.599998,0.699999 1,1.599998 1.099998,2.599998l-3.700001,0l2.600002,-2.599998z" class="st6"/>
  <path fill="#506268" id="svg_31" d="m28.6,29.700001l2.6,2.599998l-3.700001,0c0.1,-1 0.5,-1.9 1.1,-2.599998z" class="st6"/>
  <rect stroke="null" fill="#007856" id="svg_32" y="33" x="27.144167" width="4.240503" height="9.2" class="st7"/>
  <rect fill="#007856" id="svg_33" y="33" x="32" width="4.5" height="9.2" class="st8"/>
  <rect fill="#ffffff" id="svg_34" y="24.4" x="43.8" width="4.4" height="14.7" class="st3"/>
  <rect fill="#231f20" opacity="0.1" id="svg_35" y="24.4" x="46" width="2.2" height="14.7" class="st5"/>
  <rect fill="#231f20" opacity="0.1" id="svg_36" y="24.4" x="18" width="2.2" height="14.7" class="st5"/>
 </g>
</svg>