<svg xmlns="http://www.w3.org/2000/svg" xmlns:xlink="http://www.w3.org/1999/xlink" width="30" height="30" viewBox="0 0 30 30">
    <defs>
        <path id="a" d="M.624.718h29.233v17.667H.624z"/>
        <path id="c" d="M22.362.081v3.922a2.03 2.03 0 0 1-1.673 1.995c-.117.02-.236.036-.359.036H7.07l-.024.002A1.545 1.545 0 0 1 5.501 4.49V3.176h3.09V.088L.212.09c1.412 6.65 7.341 11.619 14.405 11.567C21.609 11.606 27.415 6.65 28.806.08L22.361.08z"/>
        <linearGradient id="d" x1="-4.345%" x2="106.534%" y1="49.997%" y2="49.997%">
            <stop offset="0%" stop-color="#233870"/>
            <stop offset="100%" stop-color="#0080B5"/>
        </linearGradient>
    </defs>
    <g fill="none" fill-rule="evenodd">
        <path fill="#FFF" d="M8 7h14v18H8z"/>
        <g transform="translate(0 .014)">
            <mask id="b" fill="#fff">
                <use xlink:href="#a"/>
            </mask>
            <path fill="#002F6B" d="M9.323 7.128V18.38l-8.38.004a14.662 14.662 0 0 1-.319-2.944C.565 7.369 7.061.777 15.134.718c8.072-.06 14.663 6.437 14.722 14.51.008 1.078-.104 2.13-.319 3.144l-6.444.002V9.158a2.03 2.03 0 0 0-2.03-2.03H9.322z" mask="url(#b)"/>
        </g>
        <g transform="translate(.732 18.293)">
            <mask id="e" fill="#fff">
                <use xlink:href="#c"/>
            </mask>
            <path fill="url(#d)" d="M22.362.081v3.922a2.03 2.03 0 0 1-1.673 1.995c-.117.02-.236.036-.359.036H7.07l-.024.002A1.545 1.545 0 0 1 5.501 4.49V3.176h3.09V.088L.212.09c1.412 6.65 7.341 11.619 14.405 11.567C21.609 11.606 27.415 6.65 28.806.08L22.361.08z" mask="url(#e)"/>
        </g>
        <path fill="#00C9C9" d="M21.421 24.304a2.028 2.028 0 0 0 1.672-1.994V7.142H11.32l10.101 17.162z"/>
        <g fill="#002F6B">
            <path d="M14.016 15.77h7.345v-1.463h-7.346zM14.016 12.157h7.345v-1.464h-7.346zM14.016 19.38H21.36v-1.464h-7.345zM11.279 12.157h1.463v-1.464h-1.463zM11.279 15.77h1.463v-1.464h-1.463zM11.279 19.38h1.463v-1.464h-1.463z"/>
        </g>
        <path fill="#00C9C9" d="M6.233 21.045v1.752c0 .854.691 1.546 1.545 1.546l.024-.002a1.544 1.544 0 0 0 1.52-1.544V21.045H6.234zM9.32 15.013h.003-.002zM7.78 15.013h-.003.001z"/>
    </g>
</svg>
