<svg xmlns="http://www.w3.org/2000/svg" xmlns:xlink="http://www.w3.org/1999/xlink" width="30" height="30" viewBox="0 0 30 30">
    <defs>
        <path id="a" d="M0 .169h29.124v17.65H0z"/>
        <path id="c" d="M24.17.247v4.171H4.953V.255l-4.6.003c1.442 6.525 7.25 11.41 14.21 11.41 6.962 0 12.775-4.89 14.213-11.423l-4.604.002z"/>
        <linearGradient id="d" x1="-5.656%" x2="106.95%" y1="50.003%" y2="50.003%">
            <stop offset="0%" stop-color="#233870"/>
            <stop offset="100%" stop-color="#0080B5"/>
        </linearGradient>
    </defs>
    <g fill="none" fill-rule="evenodd">
        <g transform="translate(.203 .629)">
            <mask id="b" fill="#fff">
                <use xlink:href="#a"/>
            </mask>
            <path fill="#002F6B" d="M16.017.176v2.948h2.43l-3.815 5.048-3.815-5.048h2.43V.17C5.823.835 0 7.067 0 14.666c0 1.083.128 2.136.352 3.152l4.6-.002V9.181h19.219v8.627l4.604-.001c.223-1.013.349-2.062.349-3.141 0-7.552-5.748-13.76-13.107-14.49" mask="url(#b)"/>
        </g>
        <path fill="#002F6B" d="M24.374 19.4v3.208H5.155v-4.163l-4.6.002c1.442 6.526 7.25 11.41 14.21 11.41 6.963 0 12.776-4.89 14.213-11.421l-4.604.001v.962z"/>
        <g transform="translate(.203 18.19)">
            <mask id="e" fill="#fff">
                <use xlink:href="#c"/>
            </mask>
            <path fill="url(#d)" d="M24.17.247v4.171H4.953V.255l-4.6.003c1.442 6.525 7.25 11.41 14.21 11.41 6.962 0 12.775-4.89 14.213-11.423l-4.604.002z" mask="url(#e)"/>
        </g>
        <path fill="#00C9C9" d="M16.62 19.654a3.843 3.843 0 0 1-3.86-.17 3.91 3.91 0 0 1-1.086-1.041 3.837 3.837 0 0 1-.706-2.217c0-1.343.686-2.525 1.725-3.218l-1.89-3.199H5.156v12.799h13.21l-1.746-2.954z"/>
        <path fill="#FFF" d="M10.803 9.81l1.89 3.198a3.866 3.866 0 0 1 6.009 3.217c0 .825-.261 1.588-.701 2.215a3.878 3.878 0 0 1-1.382 1.214l1.746 2.954h6.01V9.809H10.802z"/>
        <path fill="#002F6B" d="M15.373 18.49v.663h-.902v-.643c-.093-.013-.178-.046-.267-.068-.098-.025-.202-.04-.294-.076a2.064 2.064 0 0 1-.664-.414l-.137-.127.403-.815.245.207c.174.148.352.257.529.323.355.132.86.135 1.104-.022a.387.387 0 0 0 .186-.356c0-.09-.03-.132-.056-.158a.606.606 0 0 0-.234-.142 4.858 4.858 0 0 0-.507-.144l-.067-.018a5.236 5.236 0 0 1-.672-.21 1.405 1.405 0 0 1-.551-.404c-.166-.194-.248-.45-.248-.762 0-.253.065-.485.192-.69a.664.664 0 0 1 .071-.092 1.5 1.5 0 0 1 .452-.399c.153-.085.324-.147.51-.185V13.3h.901v.657c.164.032.323.081.478.149.227.1.424.23.585.387l.131.127-.407.827-.247-.23a1.402 1.402 0 0 0-.997-.402c-.23 0-.41.048-.531.144a.378.378 0 0 0-.144.227.684.684 0 0 0-.012.122c0 .124.038.178.068.208a.702.702 0 0 0 .247.157c.14.053.32.107.549.165.284.074.518.146.698.215a1.3 1.3 0 0 1 .53.377v.001c.158.185.237.428.237.72 0 .372-.134.688-.398.94a1.45 1.45 0 0 1-.295.213c-.109.062-.234.1-.36.138-.044.014-.08.038-.126.048m-.537-6.13c-.793 0-1.53.24-2.143.649a3.863 3.863 0 0 0-1.725 3.218c0 .827.264 1.59.706 2.217a3.91 3.91 0 0 0 1.085 1.041 3.842 3.842 0 0 0 3.86.17A3.878 3.878 0 0 0 18 18.44c.44-.627.702-1.39.702-2.214a3.866 3.866 0 0 0-3.866-3.866"/>
        <path fill="#FFF" d="M16.154 18.09c.264-.252.398-.568.398-.94 0-.293-.08-.535-.236-.72h-.001a1.304 1.304 0 0 0-.53-.378 6.593 6.593 0 0 0-.698-.215 4.99 4.99 0 0 1-.549-.165.687.687 0 0 1-.247-.157c-.03-.03-.069-.084-.069-.208 0-.041.005-.081.013-.122a.377.377 0 0 1 .143-.227c.122-.096.301-.145.533-.145.38 0 .706.132.996.402l.247.23.407-.826-.13-.127a1.946 1.946 0 0 0-.587-.387 2.223 2.223 0 0 0-.477-.149V13.3h-.902v.66c-.185.037-.356.099-.51.184a1.482 1.482 0 0 0-.45.4.682.682 0 0 0-.072.09 1.286 1.286 0 0 0-.192.69c0 .313.083.57.247.763.151.18.337.316.552.403.17.07.39.139.672.211l.067.018c.213.05.382.1.507.144a.609.609 0 0 1 .234.142c.026.026.056.067.056.157a.388.388 0 0 1-.186.357c-.244.157-.749.154-1.105.022a1.812 1.812 0 0 1-.528-.323l-.245-.208-.403.816.136.127c.191.178.416.318.665.414.093.035.195.05.294.076l1.295-.001c.125-.038.25-.076.36-.138a1.45 1.45 0 0 0 .295-.213"/>
        <path fill="#FFF" d="M14.471 18.51v.643h.901v-.664c.047-.01.083-.035.126-.048h-1.294c.09.023.173.056.267.07"/>
    </g>
</svg>
