<svg xmlns="http://www.w3.org/2000/svg" xmlns:xlink="http://www.w3.org/1999/xlink" width="40" height="40" viewBox="0 0 40 40">
    <defs>
        <path id="a" d="M0 .503h39.207v23.693H0z"/>
        <path id="c" d="M.293 3.088L1.566.867l.287-.503z"/>
        <linearGradient id="d" x1="-1115.983%" x2="1608.833%" y1="50.009%" y2="50.009%">
            <stop offset="0%" stop-color="#233870"/>
            <stop offset="100%" stop-color="#0080B5"/>
        </linearGradient>
        <path id="f" d="M25.582.36l-5.484 9.574-3.922-6.846-1.56-2.723L.428.371c1.892 8.92 9.846 15.58 19.318 15.512 9.378-.068 17.16-6.715 19.025-15.528L25.582.36z"/>
        <linearGradient id="g" x1="-4.348%" x2="106.553%" y1="50.003%" y2="50.003%">
            <stop offset="0%" stop-color="#233870"/>
            <stop offset="100%" stop-color="#0080B5"/>
        </linearGradient>
    </defs>
    <g fill="none" fill-rule="evenodd">
        <g transform="translate(0 -.18)">
            <mask id="b" fill="#fff">
                <use xlink:href="#a"/>
            </mask>
            <path fill="#002F6B" d="M14.616 24.19l-.553-.967-4.384-7.652H5.427l2.126-3.71h7.828l4.695 8.245 4.724-8.245h7.844l-6.506 11.357-.556.969 13.19-.007a19.6 19.6 0 0 0 .435-4.217C39.127 9.136 30.287.423 19.46.503 8.633.583-.08 9.423 0 20.249c.01 1.353.158 2.674.428 3.947l14.188-.005z" mask="url(#b)"/>
        </g>
        <g transform="translate(15.884 23.647)">
            <mask id="e" fill="#fff">
                <use xlink:href="#c"/>
            </mask>
            <path fill="url(#d)" d="M.293 3.088L1.566.867l.287-.503z" mask="url(#e)"/>
        </g>
        <g transform="translate(0 23.647)">
            <mask id="h" fill="#fff">
                <use xlink:href="#f"/>
            </mask>
            <path fill="url(#g)" d="M25.582.36l-5.484 9.574-3.922-6.846-1.56-2.723L.428.371c1.892 8.92 9.846 15.58 19.318 15.512 9.378-.068 17.16-6.715 19.025-15.528L25.582.36z" mask="url(#h)"/>
        </g>
        <path fill="#00C9C9" d="M15.38 11.681h-.023l-2.137 3.71H9.678l4.384 7.653.553.967 1.561 2.724 1.56-2.725.555-.968.272-.471 1.512-2.645z"/>
        <path fill="#FFF" d="M24.8 11.681l-4.724 8.245-1.513 2.645-.272.471-.554.968-.287.503-1.274 2.222 3.922 6.846 5.484-9.574.556-.969 6.506-11.357zM15.357 11.681H7.552l-2.126 3.71h7.794z"/>
    </g>
</svg>
