<svg xmlns="http://www.w3.org/2000/svg" height="512pt" version="1.1" viewBox="-103 0 512 512.00003" width="512pt">
<g id="surface1">
<path d="M 294.914062 93.625 L 294.914062 499.710938 L 11.703125 499.710938 L 11.703125 93.625 Z M 294.914062 93.625 " style=" stroke:none;fill-rule:nonzero;fill:rgb(46.666667%,96.862745%,66.666667%);fill-opacity:1;" />
<path d="M 177.882812 11.703125 L 177.882812 93.625 L 11.703125 93.625 Z M 177.882812 11.703125 " style=" stroke:none;fill-rule:nonzero;fill:rgb(87.058824%,100%,90.980392%);fill-opacity:1;" />
<path d="M 294.914062 82.503906 L 189.585938 82.503906 L 189.585938 11.703125 C 189.585938 5.265625 184.320312 0 177.882812 0 C 176.128906 0 174.371094 0.46875 172.734375 1.171875 L 6.554688 83.089844 C 2.574219 85.082031 0 89.175781 0 93.625 L 0 499.710938 C 0 506.148438 5.265625 512 11.703125 512 L 294.914062 512 C 301.347656 512 306.617188 506.148438 306.617188 499.710938 L 306.617188 93.625 C 306.613281 87.1875 301.347656 82.503906 294.914062 82.503906 Z M 166.179688 82.503906 L 61.910156 82.503906 L 166.179688 30.542969 Z M 283.210938 488.59375 L 23.40625 488.59375 L 23.40625 105.910156 L 283.210938 105.910156 Z M 283.210938 488.59375 " style=" stroke:none;fill-rule:nonzero;fill:rgb(14.117647%,70.196078%,38.039216%);fill-opacity:1;" />
<path d="M 64.367188 261.558594 L 150.964844 261.558594 C 157.402344 261.558594 162.667969 256.292969 162.667969 249.855469 C 162.667969 243.417969 157.402344 238.152344 150.964844 238.152344 L 64.367188 238.152344 C 57.929688 238.152344 52.664062 243.417969 52.664062 249.855469 C 52.664062 256.292969 57.929688 261.558594 64.367188 261.558594 Z M 64.367188 261.558594 " style=" stroke:none;fill-rule:nonzero;fill:rgb(14.117647%,70.196078%,38.039216%);fill-opacity:1;" />
<path d="M 52.664062 308.371094 C 52.664062 314.804688 57.929688 320.074219 64.367188 320.074219 L 244.589844 320.074219 C 251.027344 320.074219 256.292969 314.808594 256.292969 308.371094 C 256.292969 301.933594 251.027344 296.667969 244.589844 296.667969 L 64.367188 296.667969 C 57.929688 296.667969 52.664062 301.933594 52.664062 308.371094 Z M 52.664062 308.371094 " style=" stroke:none;fill-rule:nonzero;fill:rgb(14.117647%,70.196078%,38.039216%);fill-opacity:1;" />
</g>
</svg>