<svg xmlns="http://www.w3.org/2000/svg" xmlns:xlink="http://www.w3.org/1999/xlink" width="40" height="40" viewBox="0 0 40 40">
    <defs>
        <path id="a" d="M.427.37a19.564 19.564 0 0 0 6.698 11.016V7.404c0-2.305.867-4.404 2.285-6.005A9.262 9.262 0 0 1 10.49.366L.426.37z"/>
        <linearGradient id="b" x1="-16.554%" x2="405.707%" y1="50.004%" y2="50.004%">
            <stop offset="0%" stop-color="#233870"/>
            <stop offset="100%" stop-color="#0080B5"/>
        </linearGradient>
        <path id="d" d="M.92.36c.392.316.758.662 1.092 1.04A9.02 9.02 0 0 1 4.3 7.403v3.968A19.576 19.576 0 0 0 10.966.354L.92.36z"/>
        <linearGradient id="e" x1="-297.991%" x2="124.993%" y1="50.001%" y2="50.001%">
            <stop offset="0%" stop-color="#233870"/>
            <stop offset="100%" stop-color="#0080B5"/>
        </linearGradient>
        <path id="g" d="M0 .503h39.175v24.231H0z"/>
    </defs>
    <g fill="none" fill-rule="evenodd">
        <g transform="translate(0 23.626)">
            <mask id="c" fill="#fff">
                <use xlink:href="#a"/>
            </mask>
            <path fill="url(#b)" d="M.427.37a19.564 19.564 0 0 0 6.698 11.016V7.404c0-2.305.867-4.404 2.285-6.005A9.262 9.262 0 0 1 10.49.366L.426.37z" mask="url(#c)"/>
        </g>
        <g transform="translate(27.774 23.626)">
            <mask id="f" fill="#fff">
                <use xlink:href="#d"/>
            </mask>
            <path fill="url(#e)" d="M.92.36c.392.316.758.662 1.092 1.04A9.02 9.02 0 0 1 4.3 7.403v3.968A19.576 19.576 0 0 0 10.966.354L.92.36z" mask="url(#f)"/>
        </g>
        <g transform="translate(0 -.18)">
            <mask id="h" fill="#fff">
                <use xlink:href="#g"/>
            </mask>
            <path fill="#002E6F" d="M26.246 14.926a6.647 6.647 0 0 1-13.295 0v-2.214a6.647 6.647 0 0 1 13.295 0v2.214zM19.445.503C8.627.583-.078 9.416 0 20.233c.01 1.352.156 2.67.427 3.944l10.063-.004a9.012 9.012 0 0 1 5.699-2.028h.742c.013.436.136.84.333 1.198.182.33.443.6.74.826.445.344.987.565 1.594.565.609 0 1.15-.222 1.598-.566.295-.226.555-.496.737-.825.198-.357.32-.762.334-1.197h.74a9.017 9.017 0 0 1 5.69 2.02l10.043-.005c.288-1.36.446-2.766.435-4.213C39.095 9.129 30.262.424 19.445.503z" mask="url(#h)"/>
        </g>
        <path fill="#FFF" d="M29.786 25.025a9.1 9.1 0 0 0-1.09-1.04 8.993 8.993 0 0 0-5.688-2.019h-.741a2.656 2.656 0 0 1-.333 1.197c-.183.33-.443.6-.738.826-.447.343-.99.566-1.598.566V39.492c.045 0 .089.005.132.005a19.498 19.498 0 0 0 12.343-4.5V31.03a9.019 9.019 0 0 0-2.287-6.005"/>
        <path fill="#00C9C9" d="M18.003 23.99a2.716 2.716 0 0 1-.74-.827 2.656 2.656 0 0 1-.333-1.197h-.742a9.02 9.02 0 0 0-5.699 2.028 9.13 9.13 0 0 0-1.078 1.031 9.02 9.02 0 0 0-2.288 6.005v3.982a19.494 19.494 0 0 0 12.476 4.48V24.555c-.607 0-1.15-.221-1.596-.565"/>
        <path fill="#FFF" d="M19.598 21.392c.954 0 1.859-.203 2.677-.566a6.644 6.644 0 0 0 3.97-6.08v-2.214a6.647 6.647 0 0 0-6.647-6.647v15.507z"/>
        <path fill="#00C9C9" d="M16.921 20.827c.82.36 1.725.566 2.677.566V5.885a6.647 6.647 0 0 0-6.646 6.648v2.212a6.644 6.644 0 0 0 3.969 6.082"/>
    </g>
</svg>
