<svg xmlns="http://www.w3.org/2000/svg" width="112" height="112" viewBox="0 0 112 112">
    <g fill="none" fill-rule="evenodd">
        <circle cx="56" cy="56" r="56" fill="#FFF" opacity=".1"/>
        <g transform="translate(27 21)">
            <path d="M57.424 69.763V14.712v55.05z"/>
            <path fill="#00C9C9" d="M56.95 14.712L42.711.475l7.133 7.104z"/>
            <path fill="#00C9C9" d="M56.95 14.712l-7.105-7.133L42.712.475v14.237z"/>
            <path fill="#FFF" d="M46.324 18.692v3.528h-17.85v11.851h17.85v3.5h-17.85v12.182h17.85v3.5h-17.85v16.51H56.95V14.448H42.698V.475H28.475v18.217z"/>
            <path fill="#00C9C9" d="M28.475 69.763v-16.51H10.597v-3.5h17.878V37.572H10.597v-3.5h17.878V22.22H10.597v-3.528h17.878V.475H0v69.288z"/>
            <path fill="#002F6B" d="M28.489 18.034H10.44v3.797h36.068v-3.797zM28.489 34.644H10.44v2.848h36.068v-2.848zM29.439 49.83H10.44v2.848h37.966V49.83z"/>
            <ellipse cx="54.576" cy="54.576" fill="#00C9C9" rx="11.864" ry="11.39"/>
            <path stroke="#002F6B" stroke-width="3" d="M48.407 55.832l5.28 4.44 8.524-10.441"/>
        </g>
    </g>
</svg>
