<svg width="128" height="128" xmlns="http://www.w3.org/2000/svg">

 <g>
  <title>background</title>
  <rect fill="none" id="canvas_background" height="402" width="582" y="-1" x="-1"/>
 </g>
 <g>
  <title>Layer 1</title>
  <circle r="64" id="circle" fill="#007856" cy="64" cx="64"/>
  <path id="unlock" fill="#E67E22" d="m78.900002,43c-0.5,-8 -7,-14.4 -14.900002,-14.4c-7.900002,0 -14.299999,5.9 -14.900002,13.6c0,0.200001 -0.099998,0.200001 -0.099998,0.399998c0,0.100002 0,0.100002 0,0.200001c0,0.100002 0,0.200001 0,0.200001l0,0c0.200001,1 1,1.599998 2,1.599998s1.799999,-0.599998 2,-1.599998l0,0c0.200001,-6 5,-10.5 11,-10.5s11,4.700001 11,10.700001l0,15.799999l4,0l-0.099998,-16l0,0z"/>
  <path id="right" fill="#E6E6E6" d="m64,49.299999c13.800003,0 25,11.200001 25,25.000004s-11.199997,25 -25,25"/>
  <path id="left" fill="#FFFFFF" d="m64,99.300003c-13.799999,0 -25,-11.200005 -25,-25s11.200001,-25.000004 25,-25.000004"/>
  <path id="hole" fill="#22313F" d="m64,80.300003l0,0c-1.099998,0 -2,-0.900002 -2,-2l0,-8c0,-1.100006 0.900002,-2 2,-2l0,0c1.099998,0 2,0.899994 2,2l0,8c0,1.099998 -0.900002,2 -2,2z"/>
 </g>
</svg>